<svg xmlns="http://www.w3.org/2000/svg" height="235.057" width="207.262"><path d="M205.346 169.347l-111.795-1-.141 15.887a8.173 8.173 0 008.07 8.217l95.508.853a8.155 8.155 0 008.217-8.07zm-56.087 20.655a9.5 9.5 0 119.581-9.411 9.535 9.535 0 01-9.579 9.411z" fill="#e6e7e8"/><path d="M96.125 166.124l1.228-137.41 106.628.953-1.228 137.41z" fill="#85c3e9"/><path d="M203.979 29.667l-106.628-.952 105.4 138.362z" fill="#d8e9f7" opacity=".3"/><path d="M204.139 11.774c.019-2.066 1.61-6.207.151-7.692a7.779 7.779 0 00-3.123-1.948c-.747-.245-3.918 1.81-4.725 1.8l-91.1-.814c-9.382-3.586-7.8 3.415-7.836 7.7l-.135 15.154 106.628.952zm-41.642 4.829l-23.436-.209a1.37 1.37 0 01-1.359-1.383 1.373 1.373 0 011.384-1.359l23.437.21a1.371 1.371 0 11-.026 2.741zM151.276 174.458a6.316 6.316 0 104.355 6.061 6.276 6.276 0 00-4.355-6.061z" fill="#e6e7e8"/><path d="M101.482 192.452l95.508.853a8.148 8.148 0 006.784-3.536l-50.9-.455a9.436 9.436 0 01-3.611.688 9.535 9.535 0 01-2.885-.471c-.242-.08-.475-.182-.71-.281l-50.892-.454a8.241 8.241 0 00.98 1.211 8.075 8.075 0 005.726 2.445zM156.2 182.718a8.962 8.962 0 01-13.77-4.514 7.246 7.246 0 1013.77 4.514z" fill="#a7a9ac"/><g stroke="#3e4147" stroke-linecap="round" stroke-linejoin="round" transform="translate(-5897.054 -3859.226)"><path d="M6036.127 3874.249l23.436.209" fill="none" stroke-width="3.31"/><rect fill="none" height="191.483" rx="5" stroke-width="3.31" transform="rotate(.511 -429902.994 673921.231)" width="109.375"/><path d="M6036.127 3874.249l23.436.209M5991.796 4026.709l109.37.976M5993.047 3886.558l109.37.976" fill="none" stroke-width="3.31"/><circle cx="6046.37" cy="4039.688" fill="none" r="7.687" stroke-width="3.31"/><path d="M5898.554 3980.706s12 46.16 26.851 64.4c9.428 11.579 21.813 23.52 34.52 31.312 7.228 4.432 31.576 17.49 39.962 16.289-5.557-8.756 9.959-5.434 13.865-4.733.934-3.19.132-7.312 3.487-8.65 1.417-.565 9.083 2.177 11.865 1.949.612-2.65 1.425-5.176 2.232-7.8 5 .1 10.1 2.27 15.1 2.447 1.012-2.92 1.2-6.239 2.071-9.127 4.2 1.551 8.761 4.078 13.428 4.33-1.913-12.555 9.313-4.253 16.42-7.27-8.166-4.992-18.022-7.109-26.433-12.5-13.151-8.428-23.691-19.114-35.751-28.974-12.154-9.937-19.777-20.547-27.468-34.345-4.46-8-6.014-21.492-12.148-28-.001.006-18.668 9.339-78.001 20.672z" fill="#fff" stroke-width="3"/><path d="M5898.554 3980.706s12 46.16 26.851 64.4c9.428 11.579 21.813 23.52 34.52 31.312 7.228 4.432 31.576 17.49 39.962 16.289-5.557-8.756 9.959-5.434 13.865-4.733.934-3.19.132-7.312 3.487-8.65 1.417-.565 9.083 2.177 11.865 1.949.612-2.65 1.425-5.176 2.232-7.8 5 .1 10.1 2.27 15.1 2.447 1.012-2.92 1.2-6.239 2.071-9.127 4.2 1.551 8.761 4.078 13.428 4.33-1.913-12.555 9.313-4.253 16.42-7.27-8.166-4.992-18.022-7.109-26.433-12.5-13.151-8.428-23.691-19.114-35.751-28.974-12.154-9.937-19.777-20.547-27.468-34.345-4.46-8-6.014-21.492-12.148-28-.001.006-18.668 9.339-78.001 20.672z" fill="none" stroke-width="3"/><path d="M5917.22 3997.373c2.423-3.35 5.68-2.076 9.788-3.937 1.577-.715 2.7-3.242 4.812-4.111 1.776-.73 5.494-.518 7.6-.881.97-.167.925-2.086 1.921-2.335s2.848.842 3.363.647c1.865-.705 5.169-3.008 7.2-3.627 6.2-1.885 7.3 1.243 12.417-5.475 2.789 2.87 6.7 3.293 8.231-.948M5921.887 4012.706c1.627 3.543 3 2.03 5.372 1.893a43.54 43.54 0 014.765-3.681c1.962-.82 3.983.906 6.24-.256 2.4-1.238 5.181-3.968 7.284-5.281 2.9-1.812 5.636-2.265 8.122-5.242.836 1.2 2.9 2.005 3.733 3.3 3.877-1.418 5.5-5.12 10.016-6.8 4.355-1.615 7.8-.675 11.135-4.6M5933.22 4029.373a4.789 4.789 0 003.188 2c.293-4.738 2.54-3.9 5.813-4.919 1.271-.4 3.422 1.582 4.424 1.083.959-.477 2.366-3.452 2.581-3.526-1.843.634 4.032-3.106 3.114-2.6.82-.456 2.723 1.8 3.836 1.319 2.514-1.081 3.479-4.025 5.844-5.413 2.83-1.661 8.9-2.084 12.131-3.413 3.468-1.426 13.137-2.151 14.4-5.864M5944.554 4047.373a2.826 2.826 0 002.82.931 7.96 7.96 0 012.418-6.4c5.833 2.044 7.823 5.032 10.664-2.051 5.839 3.811 4.53-.919 7.732-2.461a52.733 52.733 0 017.744-3.159c2.526-.734 8.977-2.469 10.019-4.9 3.776 3.741 11.627-2.337 15.936-4.63M5959.887 4064.04c3.619-.488 4.237-3.719 7.352-4.811 1.167-.409 2.266 2.517 3.593 2.053 1.386-.483 1.981-2.14 3.369-2.628 5.118-1.8 9.157-5.471 14.752-3.93.2-5.693 7.892-5.865 12.234-8 5.649-2.779 9.981-2.368 16.033-4.018M5982.554 4072.706c4.99 4.4 9.627-3.676 13.817-6.032 1.3-.729 5.695-3.1 6.88-3.583.753-.31 1.019-1.943 1.937-2.362 1.145-.524 2.378 1.646 3.366 1.244 3.557-1.447 6.766-3.069 10.552-4.7 1.282-.551 3.232-2.494 4.746-3.217 1.7-.809 4.328-1.107 6.035-2.017" fill="none" stroke-width="3"/></g></svg>
